# xmcd
#
# Track frame offsets: 
#        150
#        12099
#        26541
#        37509
#        40710
#        58371
#        76601
#        88769
#        104110
#        108916
#        124930
#        134424
#        157817
#        176575
#        181600
#        202048
#
# Disc length: 4382 seconds
#
# Revision: 1
# Processed by: cddbd v1.5.2PL0 Copyright (c) Steve Scherf et al.
# Submitted via: ExactAudioCopy v0.99pb5
#
DISCID=c3111c10
DTITLE=Boudu les Cops - Pour des filles c'est pas mal
DYEAR=2003
DGENRE=Humour
TTITLE0=Conciliabule
TTITLE1=Bleu est le fond
TTITLE2=Boudu les cops
TTITLE3="Si" ida voulait bien dormir
TTITLE4=Ida song
TTITLE5=Gustave
TTITLE6=Caresses au 3ème étage
TTITLE7=Poussière
TTITLE8=Les mouches
TTITLE9=Kama soutra
TTITLE10="Si" les cops n'allaient pas à la mer...
TTITLE11=Les lambeaux de peau
TTITLE12=Valse à 30 ans
TTITLE13="Si" le cow boy voulait bien....
TTITLE14=Tolosa
TTITLE15=On est là
EXTD=\n\n
EXTT0=
EXTT1=
EXTT2=
EXTT3=
EXTT4=
EXTT5=
EXTT6=
EXTT7=
EXTT8=
EXTT9=
EXTT10=
EXTT11=
EXTT12=
EXTT13=
EXTT14=
EXTT15=
PLAYORDER=
